<svg xmlns="http://www.w3.org/2000/svg" width="131" height="109" viewBox="0 0 131 109">
  <g fill="none" fill-rule="evenodd" transform="translate(0 -11)">
    <path fill="#D8D8D8" d="M34.3710644,43 C55.7052364,43 73,60.2370371 73,81.5 C73,102.762963 55.7052364,120 34.3710644,120 C20.0526215,120 7.55370247,112.235694 0.88160287,100.701003 C-2.38758246,95.0492528 3.87521995,100.69985 12.4217196,94.379688 C20.9682192,88.0595257 -2.38758246,70.4938353 5.32583065,56.1172135 C10.4588711,46.5500115 22.7936227,43 34.3710644,43 Z M59.4955754,68.6666667 C55.8531557,68.6666667 52.9003912,71.6095754 52.9003912,75.2398374 C52.9003912,78.8700994 55.8531557,81.8130081 59.4955754,81.8130081 C63.137995,81.8130081 66.0907595,78.8700994 66.0907595,75.2398374 C66.0907595,71.6095754 63.137995,68.6666667 59.4955754,68.6666667 Z M46.3052071,53.0162602 C42.6627875,53.0162602 39.710023,55.9591689 39.710023,59.5894309 C39.710023,63.2196928 42.6627875,66.1626016 46.3052071,66.1626016 C49.9476267,66.1626016 52.9003912,63.2196928 52.9003912,59.5894309 C52.9003912,55.9591689 49.9476267,53.0162602 46.3052071,53.0162602 Z M27.4618239,48.0081301 C23.8194042,48.0081301 20.8666397,50.9510389 20.8666397,54.5813008 C20.8666397,58.2115628 23.8194042,61.1544715 27.4618239,61.1544715 C31.1042435,61.1544715 34.057008,58.2115628 34.057008,54.5813008 C34.057008,50.9510389 31.1042435,48.0081301 27.4618239,48.0081301 Z" transform="matrix(-1 0 0 1 73 0)"/>
    <g transform="rotate(13 44.946 414.24)">
      <path stroke="#979797" stroke-width=".9"/>
      <path fill="#D8D8D8" d="M12.4692855,67.8620544 L14.3365373,68.5173479 C17.6094145,69.6659315 19.8,72.7562606 19.8,76.2248294 L19.8,77.095227 C19.8,80.5870351 18.3962664,83.9322542 15.9045301,86.3784704 L15.5870637,86.6901372 C13.2150117,89.0188556 10.5086919,90.9805175 7.55753508,92.5102998 L3.16500204,94.7872438 C2.88257562,94.9336443 2.53494269,94.8233736 2.38854216,94.5409471 C2.3210989,94.41084 2.30578397,94.2599179 2.34571609,94.1189147 L3.16732042,91.2177717 C3.93200429,88.5176188 3.71335799,85.6336878 2.55032839,83.0796852 L1.63139248,81.0617102 C0.576029442,78.7441424 0.350073934,76.1340585 0.991456239,73.6696032 L1.02300204,73.5483912 C1.63137132,71.2107855 3.24457995,69.2630725 5.4279935,68.2300097 C7.63525012,67.1856657 10.1652002,67.0534586 12.4692855,67.8620544 Z"/>
      <path fill="#D8D8D8" d="M25.4659972,1.8 C28.015164,1.8 30.1062815,3.81915058 30.1955212,6.36675492 L32.1879076,63.2452069 C32.3010117,66.4740923 29.7751719,69.1833101 26.5462865,69.2964143 C26.4780482,69.2988046 26.4097734,69.3 26.3414933,69.3 L21.6550973,69.3 C18.4242315,69.3 15.8050973,66.6808658 15.8050973,63.45 C15.8050973,63.288671 15.8117709,63.127411 15.8251009,62.9666336 L20.5188739,6.35393051 C20.7322634,3.78018953 22.8834253,1.8 25.4659972,1.8 Z" transform="rotate(17 23.85 35.55)"/>
    </g>
  </g>
</svg>
