<svg xmlns="http://www.w3.org/2000/svg" xmlns:xlink="http://www.w3.org/1999/xlink" width="109" height="95" viewBox="0 0 109 95">
  <defs>
    <rect id="print-a" width="75" height="42" x="0" y="0"/>
  </defs>
  <g fill="none" fill-rule="evenodd">
    <rect width="109" height="42" y="29" fill="#D8D8D8" rx="7"/>
    <g transform="translate(18 53)">
      <mask id="print-b" fill="#fff">
        <use xlink:href="#print-a"/>
      </mask>
      <use fill="#F9F9F9" xlink:href="#print-a"/>
      <path fill="#E6E6E6" d="M31.4874342,-15 C32.7958566,-14.1206041 34.5914267,-13.5799982 36.8741443,-13.3781823 C39.1568619,-13.1763664 41.0329326,-13.7169723 42.5023562,-15 C43.4760374,-14.5336983 44.4515604,-14.14682 45.4289251,-13.8393649 C46.8949723,-13.3781823 49.7066609,-12.772502 50.4629368,-12.2329044 C51.2192126,-11.6933068 54.2417837,-8.81056659 56.8741302,-5.06735549 C59.5064767,-1.32414439 62,1.82874368 62,1.82874368 C62,1.82874368 59.7143663,3.79889152 55.1430988,7.73918721 L50.4629368,3.56364652 L51.067497,32.6942381 C42.952653,32.4188937 38.3942357,32.4188937 37.392245,32.6942381 C35.889259,33.1072548 25.7850911,33.0965513 24.6427346,32.6942381 C23.5003782,32.291925 24.3001659,21.1963185 24.3001659,20.46429 C24.3001659,19.976271 24.4143555,14.2146686 24.6427346,3.17948281 L20.1283317,7.73918721 L13,1.82874368 C15.8171372,-1.75709448 17.5721116,-4.05579421 18.2649233,-5.06735549 C19.3041407,-6.58469742 22.2604081,-10.4130714 23.5885528,-11.7572953 C24.8682745,-12.3486267 27.5012349,-13.4295282 31.4874342,-15 Z" mask="url(#print-b)" transform="rotate(-180 37.5 9)"/>
    </g>
    <g transform="translate(18)">
      <polygon fill="#F2F2F2" points="0 0 60.073 0 75 11.699 75 29 0 29"/>
      <polygon fill="#D8D8D8" points="60 0 60 11.642 75 11.642"/>
    </g>
    <circle cx="14" cy="38" r="2" fill="#B5B5B5"/>
    <rect width="15" height="4" x="18" y="36" fill="#B5B5B5" opacity=".982" rx="2"/>
  </g>
</svg>
