<svg xmlns="http://www.w3.org/2000/svg" width="118" height="101" viewBox="0 0 118 101">
  <g fill="none" fill-rule="evenodd" transform="translate(-5 -2)">
    <path fill="#D8D8D8" d="M96.8924145,23.4394409 C99.7184555,23.4394409 102.009414,25.7303999 102.009414,28.5564409 L102.009414,78.4221434 C102.009414,79.9813456 101.467013,81.4138632 100.560603,82.5413034 C100.51634,82.6726531 100.452489,82.7975479 100.371221,82.9120532 L88.1611304,100.115768 C86.7591429,102.091134 84.0212572,102.555948 82.0458915,101.153961 C81.643951,100.868689 81.29297,100.517709 81.0076985,100.115768 L68.7976082,82.9120532 C68.7140947,82.7943849 68.6504534,82.6685994 68.6060065,82.5386888 C67.701168,81.4121516 67.1594145,79.9804142 67.1594145,78.4221434 L67.1594145,28.5564409 C67.1594145,25.7303999 69.4503734,23.4394409 72.2764145,23.4394409 L96.8924145,23.4394409 Z M96.8924145,2.55243475 C99.7184555,2.55243475 102.009414,4.84339368 102.009414,7.66943475 L102.009414,15.75737 C102.009414,18.5834111 99.7184555,20.87437 96.8924145,20.87437 L72.2764145,20.87437 C69.4503734,20.87437 67.1594145,18.5834111 67.1594145,15.75737 L67.1594145,7.66943475 C67.1594145,4.84339368 69.4503734,2.55243475 72.2764145,2.55243475 L96.8924145,2.55243475 Z" transform="rotate(29 84.584 52.258)"/>
    <path stroke="#979797" stroke-width=".85" d="M6.83086133,96.923008 L9.02028782,95.4833143 C10.0936369,94.7775158 10.3915955,93.3352318 9.68579704,92.2618827 C9.35026212,91.7516151 8.82750748,91.3937774 8.23040183,91.2656309 C7.16821908,91.0376729 6.12235335,91.7139457 5.89439534,92.7761285 C5.7698625,93.356396 5.91397376,93.9618708 6.28656732,94.4238155 L7.3621862,95.757377 C10.1252007,99.1829862 14.6774403,100.610521 18.9017982,99.3760789 L26.8481596,97.0539928 C29.7912462,96.1939639 32.8417984,95.757377 35.9079701,95.757377 L36.6222248,95.757377 C39.0502405,95.757377 41.0185362,97.7256727 41.0185362,100.153689 C41.0185362,101.249605 41.9069519,102.13802 43.0028681,102.13802 C43.4862479,102.13802 43.9530056,101.961579 44.3155121,101.641821 L47.5510867,98.7878028 C49.7229242,96.8720799 52.6469077,96.0456919 55.5002138,96.5411885 L58.0177641,96.9783788 C59.321124,97.2047163 60.6620428,97.0530036 61.8818874,96.5411885 C62.0424406,96.4738246 62.1179853,96.2890613 62.0506214,96.1285082 C61.9975364,96.0019869 61.8687162,95.9243281 61.7320467,95.9364566"/>
  </g>
</svg>
