<svg xmlns="http://www.w3.org/2000/svg" width="102" height="117" viewBox="0 0 102 117">
  <g fill="#ED2027" fill-rule="evenodd">
    <path d="M75.5625,0 L75.5625,71.5 L60.25,56.3333333 L60.25,26 L40.5625,69.3333333 L60.25,69.3333333 L60.25,60.6666667 L75.5625,75.8333333 L60.25,88.8333333 L60.25,82.3333333 L36.1875,82.3333333 L20.875,117 L3.375,117 L58.0625,1.85738098e-15 L75.5625,0 Z M75.5625,80.1666667 L75.5625,93.1666667 L60.25,93.1666667 L75.5625,80.1666667 Z"/>
    <path fill-rule="nonzero" d="M79.9383738,22.1423623 C93.1836999,31.4283242 101.857143,46.907122 101.857143,64.4333613 C101.857143,92.8392223 79.0731431,115.866723 50.967655,115.866723 C42.7807339,115.866723 35.0453485,113.912807 28.1931123,110.441203 L32.2381031,101.426198 C37.8549098,104.42545 44.2301394,106.116723 50.967655,106.116723 C73.2669507,106.116723 91.5976744,87.5900921 91.5976744,64.4333613 C91.5976744,53.0097134 87.1366486,42.7128621 79.9388548,35.2111646 Z M47.5585493,13.1135818 L42.6432761,23.6286126 C24.2827929,27.5605824 10.3376356,44.23579 10.3376356,64.4333613 C10.3376356,71.25133 11.9266766,77.6679278 14.7381923,83.3284722 L9.57966717,94.3669639 C3.59891857,85.9349276 0.0781671159,75.5996964 0.0781671159,64.4333613 C0.0781671159,37.1853478 21.0426301,14.8861777 47.5585493,13.1135818 Z"/>
  </g>
</svg>
