<svg xmlns="http://www.w3.org/2000/svg" width="102" height="103" viewBox="0 0 102 103">
  <g fill="none" fill-rule="evenodd">
    <ellipse cx="50.968" cy="51.928" fill="#EF3C31" rx="50.889" ry="51.928"/>
    <path fill="#ECD750" d="M57.9897959,75.5 L61.9897959,77.5 L65.9897959,75.5 C65.066719,76.4230769 64.9957131,81.6065089 64.9902511,82.398498 L64.9897959,82.5 C64.9897959,82.5 57.9897959,87.5 55.9897959,87.5 C54.0805964,87.5 51.2601362,88.4112607 51.0079722,88.4940036 L51.0102041,88.5 L51.0009731,88.4969454 L50.9990269,88.4969454 L50.9897959,88.5 C50.7398638,88.4112607 47.9194036,87.5 46.0102041,87.5 C44.0102041,87.5 37.0102041,82.5 37.0102041,82.5 L37.0100692,82.4541462 C37.0075742,81.8977646 36.958922,76.4487179 36.0102041,75.5 L40.0102041,77.5 L44.0102041,75.5 L57.9897959,75.5 Z M44.0102041,74.5 L40.0102041,76.5 L36.0102041,74.5 L36.0065139,74.4685924 C35.9364823,73.8888228 34.8377902,65.4655172 30.0102041,64.5 C28.0102041,62.5 26.0102041,40.5 26.0102041,40.5 C26.0102041,40.5 25.0102041,15.5 37.0102041,15.5 C37.0102045,15.5 42.0102041,34.5 42.0102041,34.5 L59.9897959,34.5 C59.9897959,34.5 64.9897955,15.5 64.9897959,15.5 C76.9897959,15.5 75.9897959,40.5 75.9897959,40.5 C75.9897959,40.5 73.9897959,62.5 71.9897959,64.5 C66.989796,65.5 65.9897959,74.5 65.9897959,74.5 L65.9897959,74.5 L61.9897959,76.5 L57.9897959,74.5 L44.0102041,74.5 Z"/>
    <path fill="#FFF" d="M48 56L47 52 30 47 31 52C31 52 35 56 48 56zM54 56L55 52 72 47 71 52C71 52 67 56 54 56z"/>
  </g>
</svg>
