<svg xmlns="http://www.w3.org/2000/svg" width="102" height="116" viewBox="0 0 102 116">
  <g fill="none" fill-rule="evenodd">
    <ellipse cx="50.889" cy="57.928" fill="#ED2027" rx="50.889" ry="51.928"/>
    <path fill="#FFF" d="M74.8190476,0 C87.3099707,18.027027 87.3142857,33.7027027 87.3142857,33.7027027 C87.3142857,33.7027027 88.0900372,38.4054054 88.8761905,38.4054054 C86.5299042,39.1891892 83.4095238,43.1081081 83.4095238,43.1081081 C83.4095238,43.1081081 73.268774,36.8378378 63.8857143,36.8378378 C58.4475109,38.4054054 58.4190476,39.1891892 58.4190476,39.1891892 L58.4471225,39.1970701 C58.8736694,39.3157376 64.0697471,40.7240991 67.7904762,39.972973 C68.5883752,41.5405405 81.8495053,53.2972973 88.0952381,57.2162162 C91.2103031,59.5675676 92,56.4324324 92,56.4324324 L92.0008123,56.4623103 C92.0255154,57.4347351 92.5207416,81.9681081 80.2857143,104.243243 C88.8701035,83.0810811 87.3142857,61.9189189 87.3142857,61.9189189 C87.3142857,61.9189189 74.0488395,49.3783784 66.2285714,43.1081081 C61.5677779,41.5405405 57.6380952,41.5405405 57.6380952,41.5405405 L57.7528449,41.6549103 C58.6110025,42.5086703 64.0311467,47.8735135 65.447619,48.5945946 C67.0282432,50.1621622 68.5714286,48.5945946 68.5714286,48.5945946 C68.5714286,48.5945946 70.1485077,96.4054054 56.8571429,116 C66.2481767,94.0540541 63.8857143,54.0810811 63.8857143,54.0810811 C63.8857143,54.0810811 64.6880417,53.2972973 64.6666667,52.5135135 C64.6880438,51.7297297 58.4475099,45.4594595 57.6380952,44.6756757 C56.887379,43.8918919 56.0761905,43.8918919 56.0761905,43.8918919 L56.0769137,43.9274836 C56.0859385,44.2776605 56.2029845,47.125 57.6380952,48.5945946 C59.2275784,50.1621622 56.1073104,66.6216216 51.3904762,75.2432432 C51.4106008,74.3774679 51.2069707,74.0643349 51.0003406,73.9163565 C50.7936836,74.0633311 50.5893669,74.3760782 50.6095238,75.2432432 C45.8926896,66.6216216 42.7724216,50.1621622 44.3619048,48.5945946 C45.7970155,47.125 45.9140615,44.2776605 45.9230863,43.9274836 L45.9238095,43.8918919 C45.9238095,43.8918919 45.112621,43.8918919 44.3619048,44.6756757 C43.5524901,45.4594595 37.3119562,51.7297297 37.3333333,52.5135135 C37.3119583,53.2972973 38.1142857,54.0810811 38.1142857,54.0810811 C38.1142857,54.0810811 35.7518233,94.0540541 45.1428571,116 C31.8514923,96.4054054 33.4285714,48.5945946 33.4285714,48.5945946 C33.4285714,48.5945946 34.9717568,50.1621622 36.552381,48.5945946 C37.9688533,47.8735135 43.3889975,42.5086703 44.2471551,41.6549103 L44.3619048,41.5405405 C44.3619048,41.5405405 40.4322221,41.5405405 35.7714286,43.1081081 C27.9511605,49.3783784 14.6857143,61.9189189 14.6857143,61.9189189 C14.6857143,61.9189189 13.1298965,83.0810811 21.7142857,104.243243 C9.4792584,81.9681081 9.97448462,57.4347351 9.99918768,56.4623103 L10,56.4324324 C10,56.4324324 10.7896969,59.5675676 13.9047619,57.2162162 C20.1504947,53.2972973 33.4116248,41.5405405 34.2095238,39.972973 C37.9302529,40.7240991 43.1263306,39.3157376 43.5528775,39.1970701 L43.5809524,39.1891892 C43.5809524,39.1891892 43.5524891,38.4054054 38.1142857,36.8378378 C28.731226,36.8378378 18.5904762,43.1081081 18.5904762,43.1081081 C18.5904762,43.1081081 15.4700958,39.1891892 13.1238095,38.4054054 C13.9099628,38.4054054 14.6857143,33.7027027 14.6857143,33.7027027 C14.6857143,33.7027027 14.6900293,18.027027 27.1809524,0 C18.5903617,16.4594595 17.8102952,36.8378378 17.8095238,38.4054054 C19.3704282,39.1891892 33.4116248,33.7027027 38.1142857,32.9189189 C42.5698949,35.1680376 44.2178881,35.2658254 44.3527691,35.270077 C44.3619048,35.2702703 42.7724226,32.1351351 41.2380952,31.3513514 C38.0920237,32.1351351 30.2913589,31.3513514 29.5238095,31.3513514 C28.731226,31.3513514 27.1809524,32.9189189 27.1809524,32.9189189 L27.1809524,32.9189189 L24.0571429,29.7837838 C24.0571429,29.7837838 25.61096,15.6756757 33.4285714,0.783783784 C28.3547583,17.4825036 27.9808983,26.7833466 27.9618915,28.6863128 L27.9619048,29 C31.0714254,29.7837838 42.0190476,28.2162162 42.0190476,28.2162162 C42.0190476,28.2162162 45.8926885,32.9189189 45.9238095,32.9189189 C45.8926885,32.9189189 46.672755,31.3513514 46.7047619,31.3513514 C47.4528215,29.7837838 49.0129544,29.7837838 49.047619,29.7837838 C48.232888,30.5675676 47.4528215,33.7027027 48.2666667,33.7027027 C49.0129544,33.7027027 49.047619,32.9189189 49.047619,32.9189189 C49.047619,32.9189189 49.0129544,32.1351351 49.8285714,32.1351351 C50.5730874,32.1351351 50.6095238,32.9189189 50.6095238,32.9189189 L50.6095238,32.9189189 L51.3904762,32.9189189 C51.3904762,32.9189189 51.4269126,32.1351351 52.1714286,32.1351351 C52.9870456,32.1351351 52.952381,32.9189189 52.952381,32.9189189 C52.952381,32.9189189 52.9870456,33.7027027 53.7333333,33.7027027 C54.5471785,33.7027027 53.767112,30.5675676 52.952381,29.7837838 C52.9870456,29.7837838 54.5471785,29.7837838 55.2952381,31.3513514 C55.327245,31.3513514 56.1073115,32.9189189 56.0761905,32.9189189 C56.1073115,32.9189189 59.9809524,28.2162162 59.9809524,28.2162162 C59.9809524,28.2162162 70.9285746,29.7837838 74.0380952,29 L74.0381085,28.6863128 C74.0191017,26.7833466 73.6452417,17.4825036 68.5714286,0.783783784 C76.38904,15.6756757 77.9428571,29.7837838 77.9428571,29.7837838 L74.8190476,32.9189189 C74.8190476,32.9189189 73.268774,31.3513514 72.4761905,31.3513514 C71.7086411,31.3513514 63.9079763,32.1351351 60.7619048,31.3513514 C59.2275774,32.1351351 57.6380952,35.2702703 57.6380952,35.2702703 C57.7821119,35.2658254 59.4301051,35.1680376 63.8857143,32.9189189 C68.5883752,33.7027027 82.6295718,39.1891892 84.1904762,38.4054054 C84.1897048,36.8378378 83.4096383,16.4594595 74.8190476,0 Z"/>
  </g>
</svg>
