<svg xmlns="http://www.w3.org/2000/svg" xmlns:xlink="http://www.w3.org/1999/xlink" width="102" height="103" viewBox="0 0 102 103">
  <defs>
    <ellipse id="thor-a" cx="50.889" cy="51.928" rx="50.889" ry="51.928"/>
    <rect id="thor-c" width="6.803" height="60.207" x=".789" y=".793"/>
  </defs>
  <g fill="none" fill-rule="evenodd">
    <mask id="thor-b" fill="#fff">
      <use xlink:href="#thor-a"/>
    </mask>
    <use fill="#ED2027" xlink:href="#thor-a"/>
    <polygon fill="#FDC816" points="36.389 -8.811 46.229 9.128 41.309 7.497 62.629 46.636 57.709 45.005 75.749 93.928 72.469 53.159 77.389 51.528 65.909 17.282 72.469 14.02 70.829 -12.072" mask="url(#thor-b)" transform="scale(-1 1) rotate(-11 0 631.748)"/>
    <g mask="url(#thor-b)">
      <g transform="rotate(-28 100.656 -15.705)">
        <path fill="#D8D8D8" d="M4.94736842,30.7931034 L3.55271368e-14,28.3103448 L3.55271368e-14,3.48275862 L4.94736842,1 L42.0526316,1 L47,3.48275862 L47,28.3103448 L42.0526316,30.7931034 L4.94736842,30.7931034 Z"/>
        <g transform="translate(19 30)">
          <mask id="thor-d" fill="#fff">
            <use xlink:href="#thor-c"/>
          </mask>
          <use fill="#8B572A" xlink:href="#thor-c"/>
          <path stroke="#B47E25" d="M-.489710127.888653507C-.489710127.888653507 1.74565678.944649019 5.27744699 2.82253529 8.80923721 4.70042156 13.2799709 4.81241261 13.2799709 4.81241261M-.489710127 4.81241261C-.489710127 4.81241261 1.74565678 4.86840812 5.27744699 6.74629439 8.80923721 8.62418066 13.2799709 8.73617171 13.2799709 8.73617171M-.489710127 8.73617171C-.489710127 8.73617171 1.74565678 8.79216722 5.27744699 10.6700535 8.80923721 12.5479398 13.2799709 12.6599308 13.2799709 12.6599308M-.489710127 12.6599308C-.489710127 12.6599308 1.74565678 12.7159263 5.27744699 14.5938126 8.80923721 16.4716989 13.2799709 16.5836899 13.2799709 16.5836899M-.489710127 16.5836899C-.489710127 16.5836899 1.74565678 16.6396854 5.27744699 18.5175717 8.80923721 20.395458 13.2799709 20.507449 13.2799709 20.507449M-.489710127 20.507449C-.489710127 20.507449 1.74565678 20.5634445 5.27744699 22.4413308 8.80923721 24.3192171 13.2799709 24.4312081 13.2799709 24.4312081M-.489710127 24.4312081C-.489710127 24.4312081 1.74565678 24.4872036 5.27744699 26.3650899 8.80923721 28.2429762 13.2799709 28.3549672 13.2799709 28.3549672M-.489710127 28.3549672C-.489710127 28.3549672 1.74565678 28.4109627 5.27744699 30.288849 8.80923721 32.1667353 13.2799709 32.2787263 13.2799709 32.2787263M-.489710127 32.2787263C-.489710127 32.2787263 1.74565678 32.3347218 5.27744699 34.2126081 8.80923721 36.0904944 13.2799709 36.2024854 13.2799709 36.2024854M-.489710127 36.2024854C-.489710127 36.2024854 1.74565678 36.2584809 5.27744699 38.1363672 8.80923721 40.0142535 13.2799709 40.1262445 13.2799709 40.1262445" mask="url(#thor-d)"/>
        </g>
      </g>
    </g>
  </g>
</svg>
