<svg xmlns="http://www.w3.org/2000/svg" width="72.23mm" height="93.669mm" viewBox="0 0 910.07 1180.2" shape-rendering="geometricPrecision" text-rendering="geometricPrecision" image-rendering="optimizeQuality" fill-rule="evenodd" clip-rule="evenodd"><defs><style type="text/css"><![CDATA[
    .fil2 {fill:black}
    .fil1 {fill:#9D9E9E}
    .fil0 {fill:white}
   ]]></style></defs><g id="_903491872"><path class="fil0" d="M251.09 134.18c-78.21 18.82-121.67 20.89-151.99 83.41-18.32 37.78-10.33 57.09-17.1 98.67-18.14 111.4-45.13 109.53-51.8 304.81-4.72 138.15-3.12 78.49-24.23 153.07-8.09 28.57 1.02 25.29 6.04 41.33 2.39 7.63 2.91 8.35-1.1 14.69-12.16 19.2-11.18 21.15-.65 38.91 4.93 8.32 4.6 7.71 2.02 16.7-13.09 45.51-9.34 85.93-12.03 139.45-2.08 41.25 9.68 35.75 7.72 71.2-4.96 89.66-13.37 81.99 54.19 83.13 58.58.99 59.22 6.35 58.79-43.21-.92-106.68 6.02-52.9 9.95-108.91 4.02-57.21 12.56-91.38 23.48-141.39 8.37-38.3 17.79-177.62 17.84-225.44.04-35.07 5.16-35.56 12.5-66.17 10.05 93.08-26.14 290.38-20.83 328.61 2.79 20.14 12.05 20.02 17.67 35.52-1.03 38.61-5.09 62.52-.35 99.59 1.7 13.33 11 17.44 24.37 22.68 76.15 29.84 421.62 37.25 518.56-1.34 11.86-4.72 20.58-5.33 22.46-18.04 3.44-23.3-2.26-64.88-1.79-96.51.13-9.04-.1-10.12 4.71-17.66 11.79-18.49 10.79-18.59 8.43-49.38 5.73 23.03 23.82 19.18 16.61 61.87-7.06 41.74-6.24 35.57 9.85 70.2-8.32 21.02-15.14 27.47 1.57 44.14 0 26.34-2.28 66.66 1.98 92.61 1.19 7.23.93 10.93 11.99 10.93l83.66.77c8.01.07 9.89-.42 11.92-8 7.01-26.16 2.52-69.87 1.52-96.3 26.38-44.14 5.22-79.97 1.06-128.75-4.85-56.83 8.25-41.7-1.83-140.28-5.51-53.93-8.47-85.2-9.25-140.04-.29-20.19-5.21-15.75-8.87-28.81-3.81-13.61 1.9-18.76 2.32-33.21.86-29.26-5.43 4.95-.19-66.5 3.44-46.92-29.48-210.1-41.28-261.09-21.54-93.04-35.89-125.72-165.12-139.66 7.17-27.54-6-47.5-19.13-63.07-12.19-14.46-25.04-37.6-42-47.06-51.6-28.77-244.41-39.15-301.28-.06-28.19 19.37-30.99 39.01-38.85 50.18-11.64 16.55-35.27 27.22-21.53 58.44z"/><path class="fil1" d="M368.24 118.58c9.32 22.21 60.16 60.6 87.03 73.69 5.06 2.4 10.14 2.71 15.34-.88.68-6.79 75.59-43.13 86.14-72.81-18.8-10.72-41.51-12.72-67.39-15.34l-8.93 26.09-43.9 1.53.99-31.12c-22.11-2.91-53.87 10.16-69.27 18.84z"/><path class="fil2" d="M797.79 1164.61l-2.48-87.95c-.14-5.23 1.34-6.4 6.89-6.37 25.38.15 48.78.3 74.17.44 9.73.06 11.66 1.5 11.95 10.01.94 27.5 7.08 61.15-1.39 84.13-1.94 5.25-1.36 4.46-6.66 4.54l-75.43 1.16c-5.25.08-7.05-1.6-7.05-5.96zm-783.92-6.06c1.34-27.36 2.69-51.5 4.03-78.87.38-7.68 2.69-9.39 10.67-9.34 25.28.17 48.37.34 73.65.5 9.86.07 10.63 1.58 10.78 10.93.43 25.63 3.14 59.81-2.18 82.3-1.43 6.04-3.69 5.97-9.84 6.1l-52.15 1.1c-20.85-1.25-34.65.26-34.96-12.74zm176.6-101.46c-7.05-23.76-2.32-58.19-.72-85.77.36-6.33-.48-6.39 6.85-4.55 12.91 3.23 32.21 13.88 48.92 17.61 92.06 20.54 350.79 27.67 437.1-.44 18.42-6 28.39-12.8 43.73-18.5 10.97-4.08 10.67-3.02 10.58 9.02l-.54 72.72c-.08 11.2 1.97 13.5-8.33 19.13-79.55 43.47-436.51 38.26-523.43 4.6-8.42-3.26-11.51-4.81-14.17-13.8zm87.53-135.68c18.56-23.12 26.6-26.75 43.95-67.91 11.33-26.89 13.59-62 21.09-86.16 3.82-12.29 6.54-9.54 19.33-9.45l216.38 1.52c11.15.08 12.32-.13 14.66 10.7 6.71 31.06 9.08 55.89 20.41 85.4 33.24 86.65 57.16 37.46 41.91 101.35-8.26 34.58-11.67 30.08-95.07 33.44-30.28 1.22-59.23 2.49-89.62 2.76-209.33 1.89-184.23-6.12-195.67-57.18-1.79-8-2.45-8.14 2.64-14.48zm468.42-132.47c5.23 12.89 3.17 27.49 4.08 52.91-7.01-15.03-8.28-40.76-8.81-61.04l4.72 8.13zm-665.29-428.35c10.3-48.47 8.86-122.7 38.21-157.89-3.01 152.09 110.55 230.32 49.8 414.42-9.92 30.05-13.74 183.35-17.99 230.29-3.56 39.36-14.37 67.53-20.75 103.7-5.17 29.3-3.85 69.13-10.46 98.32-2.25 9.97-5.6 12.87-20.7 12.53l-68.98-1.58c-13.67-1.14-20.97.81-21.52-16.81-.83-26.86 1.56-57.92 2.56-83.27 3.84-97.72 20.28-67.88 1.79-108.25-2.8-6.12-2.9-4.95.82-10.99 2.82-4.58 4.31-5.75 6.85-10.81 2.97-5.9 2.39-7.04.73-13.51-5.02-19.44-15.51-17.36-4.39-50.3 29.36-86.97 18.28-65.61 23.37-176.85 4.39-96.06 17.81-145.86 40.66-229.01zm657.23 244.41l-.59-66.06c2.81-76.17 9.61-110.48 32.34-175.02 9.41-26.74 17.13-51.34 24.41-77.71 20.78-75.27 6.96-42.63 12.64-85.12 5.57 24.73 20.62 57.24 26.91 91.92l36.69 212.1-1.09 115.85c-2.12 30.52 11.72 18.27 8.43 51.52-3.42 34.57 6.59 139.43 13.24 168.01 8.01 34.39-7.14 76.94-.51 115.74 5.16 30.17 15.67 65.86 6.86 94.49-3.38 10.97-4.82 10.8-15.05 11.48-24.16 1.61-64.34 3.07-87.43-1.29-9.26-1.75-11.41-1.12-9.42-10.46 3.34-15.65 14.21-11.2-1.21-40.56-10.97-20.88-4.58-26.92-1.37-50.81 7.12-52.9-21.65-46.4-22.77-93.67-.86-36.35-11.44-85.64-12.68-115.92-2.02-49.54-7.58-101.62-9.41-144.48zm-245.02-406.63c41.39-17.12 68.19-45.29 97.75-75.28 38.76-39.32 47.58-82.16-26.55-98.44-67.93-14.92-303.05-34.17-250.97 68.87 7.83 15.5 15.76 27.26 25.98 36.7 20.94 19.36 85.09 75.91 113.61 74.07 5.98-.36 8.28-12.22-3.15-17.92-29.49-14.7-73.61-48.37-81.75-67.79 15.4-8.67 45.91-18.63 68.02-15.71l.26 28 48.58.56 4.25-28.18c25.88 2.62 48.59 4.62 67.39 15.34-10.55 29.68-84.87 65.95-88.78 74.31-7.5 16.03 18.88 8.16 25.36 5.48zm-25.53 45.33c-.67 13.92-.14 31.32 1.95 43.5 5.62.62 1.16 15.14 7.4 14.97 4.8-.36-1.28-15.18 3.97-15.41.07-13.46-1.63-32.54.65-43.74 47.84-35.53 125.3-48.74 189.25-99.21 32.53 4.87 103.86 18.37 118.34 38.59 31.27 43.67-31.82 179.51-46.19 235.29-13.21 51.27-8.48 131.89-16.43 187.67 6.46 42.98 11.33 103.88 10.01 139.86-3.02 82.26 23.81 177.4 5.47 200.32-9.7 12.12-58.16 32.08-79.49 31.43 5.21-12.38 8.51-27.51 11.29-43.63 1.8-10.46 3.29-10.86-4.35-17.67-59.62-53.14-49.07-108.69-68-160.86-3.31-9.13-2.31-9.42-11.67-9.4l-241.17.44c-10.77.02-11.48-1.13-15.25 9.92-8.63 25.33-14.17 71.15-22.05 92.61-12.8 34.87-26.07 45.9-44.26 67.22-5.57 6.52-7.33 7.23-5.72 15.71l7.96 42.09c1.48 7.8 2.46 6.69-5.47 5.38-18.59-3.09-37.03-6.74-53.14-13.93-7.7-3.44-13.33-4.6-19.42-10.61-15.86-15.65-18.3-16.7-18.9-38.96-1.63-60.33 15.95-161.21 19.04-219.21 3.7-69.55 9.27-172.53-1.14-239.04-6-38.35-15.29-65.12-28.95-99.68-19.37-49.01-61.63-162.46-5.8-189.06 23.39-11.14 72.34-22.26 101.96-23.68 26.24 20.95 61.43 35.49 88.6 54.47 29.17 20.38 39.16 24.34 72.58 34.2 8.49 2.51 14.6 2.68 22.26 7.22-1.85 14-2.51 33.87-.16 47.54 6.51 1.29 1.28 15.59 7.83 15.31 5.51-.22-1.62-14.06 3.96-15.74.49-9.72.75-22.6 2.88-34.66.54-3.03.42-6.49.62-9.86 5.73.32 3.99-1.39 11.55.62zm-8.08-14.9c3.31-2.52 3.42-7.13 4.22-10.08-1.68-14.27-21.82-13.86-24.11-1.3-.59 2.37 1.72 6.92 1.86 8.05.04.32 1.11 1.76.87 1.76-2.27-.03-14.43-9.97-17.06-12.14-27.6-22.7-124.25-69.25-137.28-122.55-18.4-75.28 104.77-86.32 173.91-84.48 65.29 1.73 196.99 6.97 173.32 88.54-9.32 32.11-38.56 51.63-63.08 69.73-25.06 16.32-46.16 31.08-71.22 47.41-9.09 6.18-14.29 10.52-14.69 7.66 2.92-5.04-.04-15.37-11.73-12.82-6.41 1.58-10.6 7.46-7.93 13.28.48 1.7 3.09 3.38 2.6 6.04-.15.79-.43 4.67-2 4.59-3-.15-11.27-.94-7.68-3.67zm94.25-142.15l9.47 22.14c-49.09-25.05-151.2-25.98-201.93-.31l9.15-22.22c-50.15 19.97 11.1 64.64 57.23 99.68-38.74-18.22-127.31-95.47-109.89-131.26 23.63-48.56 236.97-36.8 279.22-9.13 19.17 12.56 15.61 34.17 1.07 53.94-16.07 21.86-60.68 70.08-93.56 81.11 24.56-19.64 96.65-68.2 49.25-93.93zm-124.26 139.23c-26.1 1.55-91.08-42.12-113.73-54.8-7.35-4.12-50.31-30.51-51.84-32.17-19.76-21.34-.01-45.11 11.94-54.01 9.42 17.58 8.36 33.37 23.6 49.44 15.91 16.78 112.64 84.7 130.03 91.54zm100.33-20.26c11.93-5.28 61.59-42.66 70.52-50.63 26.29-23.44 39.57-25.81 47.27-75.17 18.96 18.17 5.74 38.86-10.03 54.09-10.71 10.34-7.17 3.82-10.42 11.68-2.49 6.03-2.4 5.09 3.67 1.95 18.07-9.35 25.47-19.81 34.27-41.66 17.78 48.93-90.04 81.89-135.28 99.75zm-278.96-71.42c-78.21 18.82-121.67 20.89-151.99 83.41-18.32 37.78-10.33 57.09-17.1 98.67-18.14 111.4-45.13 109.53-51.8 304.81-4.72 138.15-3.12 78.49-24.23 153.07-8.09 28.57 1.02 25.29 6.04 41.33 2.39 7.63 2.91 8.35-1.1 14.69-12.16 19.2-11.18 21.15-.65 38.91 4.93 8.32 4.6 7.71 2.02 16.7-13.09 45.51-9.34 85.93-12.03 139.45-2.08 41.25 9.68 35.75 7.72 71.2-4.96 89.66-13.37 81.99 54.19 83.13 58.58.99 59.22 6.35 58.79-43.21-.92-106.68 6.02-52.9 9.95-108.91 4.02-57.21 12.56-91.38 23.48-141.39 8.37-38.3 17.79-177.62 17.84-225.44.04-35.07 5.16-35.56 12.5-66.17 10.05 93.08-26.14 290.38-20.83 328.61 2.79 20.14 12.05 20.02 17.67 35.52-1.03 38.61-5.09 62.52-.35 99.59 1.7 13.33 11 17.44 24.37 22.68 76.15 29.84 421.62 37.25 518.56-1.34 11.86-4.72 20.58-5.33 22.46-18.04 3.44-23.3-2.26-64.88-1.79-96.51.13-9.04-.1-10.12 4.71-17.66 11.79-18.49 10.79-18.59 8.43-49.38 5.73 23.03 23.82 19.18 16.61 61.87-7.06 41.74-6.24 35.57 9.85 70.2-8.32 21.02-15.14 27.47 1.57 44.14 0 26.34-2.28 66.66 1.98 92.61 1.19 7.23.93 10.93 11.99 10.93l83.66.77c8.01.07 9.89-.42 11.92-8 7.01-26.16 2.52-69.87 1.52-96.3 26.38-44.14 5.22-79.97 1.06-128.75-4.85-56.83 8.25-41.7-1.83-140.28-5.51-53.93-8.47-85.2-9.25-140.04-.29-20.19-5.21-15.75-8.87-28.81-3.81-13.61 1.9-18.76 2.32-33.21.86-29.26-5.43 4.95-.19-66.5 3.44-46.92-29.48-210.1-41.28-261.09-21.54-93.04-35.89-125.72-165.12-139.66 7.17-27.54-6-47.5-19.13-63.07-12.19-14.46-25.04-37.6-42-47.06-51.6-28.77-244.41-39.15-301.28-.06-28.19 19.37-30.99 39.01-38.85 50.18-11.64 16.55-35.27 27.22-21.53 58.44zM737.77 538.93l.08 5.02c.29.74 29.25-22.92 55.22-63.1 9.26-26.85 7.49-52.28 13-77.68 4.46-20.56 3.82-43.47 3.82-67.91h-4.79c0 19.79.3 41.98-5.62 63.74-3.17 11.65-3.32 24.17-4.8 36.46-4.9 40.67-35.27 74.6-56.91 103.46zM281.02 647.43c-20.91-95.06-36.22-92.98-61.08-152.53-5.99-14.35-14.12-43.75-19.26-51.14-6.49 42.14 33.89 108.35 56.3 150.45 20.32 38.17 7.96 30.74 24.04 53.22zM84.98 371.85c10.29 38.23 2.39 96.36 4.6 134.48 24.21-47.69 12.09-90.61 5.3-135.3-1.83-12.05-3.17-33.39-5.81-28.84-4.47 7.11-6.21 21.73-4.08 29.66zM852.5 946.31c-4.89-22.38-7.51-16.14-23.95-25.48-6.4-3.64-20.73-17.36-24.9-23.22-6.55-9.2-10.46-23.84-13.7-36.05-2.11-7.95-2.47-13.62-3.99-21.55l-9.36-20.32c-2.4 28.52 3.54 64.59 16.11 83.68 14.97 22.72 31.63 24.88 59.79 42.95zM27.35 793.37c24.37-.65 39.77-9.86 53.67 12.86 10.79 17.63 28 37.86 41.85 44.15-8.29-20.9-11.67-22.99-24.24-39.76-16.65-22.21-39.37-49.17-71.28-17.25zM28.12 921.48c42.98-18.28 60.38-5.4 92.91 14.1-2.51-17.15-2.21-13.71-15.16-20.91-6.89-3.83-15.05-8.63-24.38-11.29-28.35-8.11-42.17-2.35-53.37 18.1zM613.27 734.82c5.88 5.54 21.95-6.87 41.86-7.83 22.9-.45 51.9-4.7 11.61-14.51-6.79-.24-14.64.86-21.21 2.49-7.84 1.95-32.02 10.28-32.26 19.85zM813.99 1039.3c1.26 4.2-8.63 7.68 21.17 10.64 29.27 2.91 56.95-5.46 63.61-38.23-24.21 11.94-9.39 15.15-31.18 23.53-15.57 5.99-35.39 4.05-53.61 4.05zM252.17 718.56c2.59 7.38 8.49 1.17 15.6 12.62 6.73 10.83 20.74 2.42 21.02-8.15.2-7.61-10.66-6.43-15.06-7.99-23.29-8.27-22.64.44-21.56 3.53zM596.22 972.98c16.14-3.54 28.3-10.54 31.45-27.01-7.22 1.02-11.33 1.22-12.08 1.19-1.14-.06.04 2.4-4.89 8.53-3.16 3.66-1.18 1.87-5.83 7.24-6.4 7.4-2.76 2.05-8.66 10.05z"/></g></svg>