<svg id="Layer_1" data-name="Layer 1" xmlns="http://www.w3.org/2000/svg" viewBox="0 0 493.2 609.12"><defs><style>.cls-1{fill:#fff;}</style></defs><title>longsleeve</title><path class="cls-1" d="M215.76,58.42h13a10.62,10.62,0,0,0,2,.74c10.41,1.63,20.83,3.28,31.26,4.82,21.15,3.12,42.31,3.62,63.25-1.36,8.49-2,16.74-3,25,.23,2.6,1,4.91,2.79,7.5,3.87,10.36,4.34,21.23,7.7,31.07,13,17.78,9.53,35.57,18.79,55,24.56a161.7,161.7,0,0,1,17,6.68c7.34,3.14,13.13,8.28,16.16,15.64,3.36,8.15,6.75,16.48,8.56,25.06,4.27,20.26,7.93,40.67,11.26,61.12,4.93,30.27,9.81,60.57,13.89,91,4.41,32.9,8,65.91,11.74,98.9,2.61,23.22,4.76,46.5,7.23,69.74,1.05,9.88,2.4,19.72,3.61,29.58v61.92c-.15,1.42-.39,2.83-.45,4.25-.36,9.58-.24,19.21-1.2,28.73-.59,5.83-2.84,11.48-4.34,17.22-.61,2.33-1.61,4.64-1.76,7-.67,10.74-1.09,21.49-1.61,32.23-.17,3.41-2,5.29-5.2,6.47-17,6.31-33.84,5-50.71-.5-4.6-1.5-6.65-4.39-6.81-9.23-.23-6.59-1-13.15-1.37-19.73-.42-8.23-3.05-15.82-5.48-23.63-3.22-10.37-4.82-21.24-7.11-31.9-5.42-25.2-10.06-50.54-12-76.29-.66-9-1-17.95-1.74-26.91-1.33-17.2-3.29-34.37-4.06-51.59-1.11-24.55-1.12-49.15-2.13-73.7-.47-11.49-2.19-22.93-3.34-34.38a2,2,0,0,0-.73,1.83c.92,19,1.93,38.07,2.75,57.11.72,16.77,1.19,33.54,1.85,50.31.95,24.2,2.36,48.39,2.86,72.59.38,18.34-.83,36.7-.46,55,.34,16.52,1.48,33.05,3,49.5,1,10.35,3.37,20.57,5,30.87.19,1.2-.1,3.08-.91,3.75-6.82,5.64-13.34,11.86-20.86,16.42-19,11.51-40,12.92-61.55,10.63-17.95-1.91-35.32-6.6-52.57-11.62-18.74-5.44-37.73-8.54-57.17-5.91-14.59,2-29.07,4.81-43.55,7.49-17.25,3.2-34.54,6.26-52.09,3.1-4.7-.85-9.21-3.18-13.6-5.28-3.39-1.62-4.76-4.73-4.75-8.61,0-8.5-.2-17-.23-25.52-.06-24.26,2.52-48.33,5.17-72.41,1.74-15.72,2.87-31.49,1.57-47.37-.92-11.34-1.49-22.76-1.31-34.12q.45-28.77,2.12-57.5c1.66-28.36,3.88-56.68,5.77-85,.51-7.61.71-15.24,1.05-22.86a51.1,51.1,0,0,0-1.93,8.86c-4.52,24.36-5.56,49.05-6.76,73.71-.76,15.81-.59,31.65-1.27,47.46-1.09,25.27-2.51,50.53-3.86,75.78-.57,10.77-.32,21.69-2.16,32.24-4.49,25.64-9.2,51.2-9.24,77.36a9.33,9.33,0,0,1-1.94,5.89,12.6,12.6,0,0,0-3.43,8.77c-.14,7.9-.15,15.81-.46,23.7-.46,11.68.75,10.84-12.14,15.73-5.08,1.92-10.66,2.52-16,3.72H68.88c-2.9-.49-5.83-.86-8.71-1.49-7.37-1.62-15.12-2.48-20.09-9.31v-5c3.83-9.21,4.15-18.86,3.13-28.54-.83-7.87-2.39-15.64-.18-23.52a53,53,0,0,0,1.42-7.41c2.17-16.63,3.93-33.33,6.51-49.89a285.8,285.8,0,0,0,3.28-54.81c-.48-13.18-1.46-26.38-1.06-39.53.7-23,2-46,3.58-68.92s3.2-45.7,6-68.4c3.82-31.1,6.37-62.26,6.19-93.57-.17-28.73,5.09-56.48,13-83.85,5.61-19.33,17.21-33.48,36.46-40.67,4.93-1.84,9.84-3.78,14.86-5.37,16.32-5.16,32.8-9.83,49-15.38C193.65,68,204.62,62.93,215.76,58.42Z" transform="translate(-40.08 -58.42)"/><path d="M215.76,58.42h13a10.62,10.62,0,0,0,2,.74c10.41,1.63,20.83,3.28,31.26,4.82,21.15,3.12,42.31,3.62,63.25-1.36,8.49-2,16.74-3,25,.23,2.6,1,4.91,2.79,7.5,3.87,10.36,4.34,21.23,7.7,31.07,13,17.78,9.53,35.57,18.79,55,24.56a161.7,161.7,0,0,1,17,6.68c7.34,3.14,13.13,8.28,16.16,15.64,3.36,8.15,6.75,16.48,8.56,25.06,4.27,20.26,7.93,40.67,11.26,61.12,4.93,30.27,9.81,60.57,13.89,91,4.41,32.9,8,65.91,11.74,98.9,2.61,23.22,4.76,46.5,7.23,69.74,1.05,9.88,2.4,19.72,3.61,29.58v61.92c-.15,1.42-.39,2.83-.45,4.25-.36,9.58-.24,19.21-1.2,28.73-.59,5.83-2.84,11.48-4.34,17.22-.61,2.33-1.61,4.64-1.76,7-.67,10.74-1.09,21.49-1.61,32.23-.17,3.41-2,5.29-5.2,6.47-17,6.31-33.84,5-50.71-.5-4.6-1.5-6.65-4.39-6.81-9.23-.23-6.59-1-13.15-1.37-19.73-.42-8.23-3.05-15.82-5.48-23.63-3.22-10.37-4.82-21.24-7.11-31.9-5.42-25.2-10.06-50.54-12-76.29-.66-9-1-17.95-1.74-26.91-1.33-17.2-3.29-34.37-4.06-51.59-1.11-24.55-1.12-49.15-2.13-73.7-.47-11.49-2.19-22.93-3.34-34.38a2,2,0,0,0-.73,1.83c.92,19,1.93,38.07,2.75,57.11.72,16.77,1.19,33.54,1.85,50.31.95,24.2,2.36,48.39,2.86,72.59.38,18.34-.83,36.7-.46,55,.34,16.52,1.48,33.05,3,49.5,1,10.35,3.37,20.57,5,30.87.19,1.2-.1,3.08-.91,3.75-6.82,5.64-13.34,11.86-20.86,16.42-19,11.51-40,12.92-61.55,10.63-17.95-1.91-35.32-6.6-52.57-11.62-18.74-5.44-37.73-8.54-57.17-5.91-14.59,2-29.07,4.81-43.55,7.49-17.25,3.2-34.54,6.26-52.09,3.1-4.7-.85-9.21-3.18-13.6-5.28-3.39-1.62-4.76-4.73-4.75-8.61,0-8.5-.2-17-.23-25.52-.06-24.26,2.52-48.33,5.17-72.41,1.74-15.72,2.87-31.49,1.57-47.37-.92-11.34-1.49-22.76-1.31-34.12q.45-28.77,2.12-57.5c1.66-28.36,3.88-56.68,5.77-85,.51-7.61.71-15.24,1.05-22.86a51.1,51.1,0,0,0-1.93,8.86c-4.52,24.36-5.56,49.05-6.76,73.71-.76,15.81-.59,31.65-1.27,47.46-1.09,25.27-2.51,50.53-3.86,75.78-.57,10.77-.32,21.69-2.16,32.24-4.49,25.64-9.2,51.2-9.24,77.36a9.33,9.33,0,0,1-1.94,5.89,12.6,12.6,0,0,0-3.43,8.77c-.14,7.9-.15,15.81-.46,23.7-.46,11.68.75,10.84-12.14,15.73-5.08,1.92-10.66,2.52-16,3.72H68.88c-2.9-.49-5.83-.86-8.71-1.49-7.37-1.62-15.12-2.48-20.09-9.31v-5c3.83-9.21,4.15-18.86,3.13-28.54-.83-7.87-2.39-15.64-.18-23.52a53,53,0,0,0,1.42-7.41c2.17-16.63,3.93-33.33,6.51-49.89a285.8,285.8,0,0,0,3.28-54.81c-.48-13.18-1.46-26.38-1.06-39.53.7-23,2-46,3.58-68.92s3.2-45.7,6-68.4c3.82-31.1,6.37-62.26,6.19-93.57-.17-28.73,5.09-56.48,13-83.85,5.61-19.33,17.21-33.48,36.46-40.67,4.93-1.84,9.84-3.78,14.86-5.37,16.32-5.16,32.8-9.83,49-15.38C193.65,68,204.62,62.93,215.76,58.42Zm208.43,403.1,1.15-.22c-.53-14.6-1-29.21-1.58-43.82-1.09-28.26-2.49-56.52-3.25-84.79-.67-25.05-.82-50.12-.85-75.18,0-9.82.83-19.64,1.5-29.44.27-4,1.11-7.89,1.68-11.84l.91.11c2.08,16.71-.72,33.44-.28,50.18a24.71,24.71,0,0,0,1.13-4.5c2-12.53,2.91-25.38,6.32-37.53a240.52,240.52,0,0,0,8.3-49.47c1.41-21.23,4.36-42.21,13.46-61.81.08-.17-.06-.44-.09-.69s-.31-.39-.52-.47c-1-.4-2-.82-3-1.14a290.14,290.14,0,0,1-63.13-28.28c-8.66-5.13-18.57-8.14-27.88-12.19-2.43-1-3.57-.15-4.82,2-15.16,25.44-37.66,38.4-67.21,39.32-31.34,1-56.65-10.14-74.32-36.75-1.77-2.66-3.59-5.28-5.36-7.88l-2.31,1c-17.53,7.43-34.94,15.1-53.59,19.55A190.64,190.64,0,0,0,124.11,96c-7,2.82-13.72,6.7-20.26,10.61a9.68,9.68,0,0,0-3.9,6.07,67.39,67.39,0,0,0,2.4,30.56c3.85,12.86,11.16,23.8,19.1,34.39,1.07,1.42,2.12,2.85,3.18,4.28l.74-.39-1-6.39a7.81,7.81,0,0,1,2,3.42c2.7,10.66,6,21.22,7.83,32,3.31,19.24,5.28,38.73,11.71,57.32,4.65,13.44,5.07,27.24,3.77,41.21-1.75,18.73-3.79,37.45-5.09,56.21-1.32,19-2.12,38.06-2.71,57.11-.5,15.81-.71,31.64-.41,47.45.25,13.05,2.5,26.13,2,39.12-.8,18.89-3.62,37.68-5,56.56-1.31,17.69-1.88,35.43-2.8,53.14-.16,3.12,1.15,5.13,3.93,6.6a33.62,33.62,0,0,0,20.22,3.77c13.52-1.76,27-4,40.39-6.64a245.79,245.79,0,0,1,66.88-4.32c23.12,1.79,45.89,5.92,68.46,11,30.56,6.85,59.51,2.77,87.21-11.35,8.76-4.46,8.4-4.6,7.26-14.39-1.78-15.23-4-30.48-4.45-45.76-.57-21.68.38-43.4.63-65.11.13-10.61-.87-21-5-31a72.63,72.63,0,0,1-4.42-16.63c-2.7-18.12-5.3-36.27-7.31-54.47-2-18-3.2-36-4.75-54a11.53,11.53,0,0,1,1.8,4.16c1,6.27,2.08,12.53,2.83,18.83,3,25.23,5.57,50.5,8.87,75.68C419.4,444,422.16,452.7,424.19,461.52Zm97.63,151.1,2,.28c.77-3.29,1.73-6.55,2.3-9.88,3-17.34,3.23-34.89,2.77-52.37-.67-25.15-2.07-50.3-3.77-75.41-1.47-21.77-3.54-43.5-5.8-65.2-2.5-24-5.49-47.88-8.33-71.81-.95-8-2.08-16-3.12-24l-1.07,0q-1.83,24.35-3.65,48.68l-1.95,0c4-53,2.26-105.55-9.82-157.4-4.92,19.21-4.09,38.82-4.47,58.36a108.06,108.06,0,0,1-2.9-33.11c1-15.07,2.36-30.11,3.37-45.18.54-8.17-2.72-15.57-5.17-24-2.76,5.72-5.07,10.69-7.53,15.57-12.27,24.31-23.69,48.92-30.5,75.47-3.48,13.56-9.17,26.22-18.45,37-.9,1-1.05,3.16-.82,4.67.94,6.16,2.69,12.23,3.18,18.4,1.64,20.43,3.28,40.87,4.11,61.33s.65,41,1,61.52c.07,3.74.75,7.46,1.15,11.19h1.4q3.3-25.59,6.61-51.19l1.11.1c-.91,12.15-1.37,24.36-2.83,36.45-2.07,17.07-3.76,34.19-2,51.3q3.72,36.09,9.18,72c2.45,16,6.44,31.69,9.73,47.52.91,4.37,2.9,7.77,7.42,9.33a90.79,90.79,0,0,0,45.7,3.71c5.13-.87,8.44-4,8.92-9,.73-7.83,1-15.74,1-23.61,0-9.46-.7-18.91-.91-28.36-.05-2.08.68-4.17,1-6.25l1.17.15C520.82,570.17,526.55,591.3,521.82,612.62ZM92.22,402.8c4.57,19.67,8.26,39.59,14,58.92s13.42,37.86,20.08,56.29c1.26-20.6,2.71-41.4,3.76-62.21,1.09-21.67,2.59-43.36,2.5-65-.15-36.45,4.91-72.45,7.72-108.65.32-4.13.49-7.68-2.74-10.84a13.68,13.68,0,0,1-3.09-5.23c-3.69-10.85-7.6-21.66-10.66-32.7-2.32-8.4-3.34-17.15-5.21-25.69-.75-3.4-2.25-6.63-3.66-10.68,4.14,3.08,5.06,6.92,5.84,10.8,3.63,18.14,9.28,35.68,15.76,53,.64,1.71,1.56,3.32,2.6,5.52-1.55-9.28-2.92-17.88-4.43-26.44a60.29,60.29,0,0,0-2.48-10.64c-2.14-5.69-4.91-11.14-7.22-16.77-3.37-8.17-6.58-16.4-9.83-24.61a22.59,22.59,0,0,1-.68-2.44l.9-.38c9.56,8,9,21.51,16,31.32-.28-15.16-3.66-28.48-14.26-39.88C106,164.5,100,149.62,97.7,133.46c-.84-6-1-12.07-1.46-19.11-1.54,2.47-2.91,4.11-3.69,6-3,7.31-6.37,14.54-8.48,22.11a57.66,57.66,0,0,0-1.61,17c.28,9.76,4.4,18.56,8.16,27.39,7,16.55,13,33.47,16.7,51.12a84.88,84.88,0,0,1,.94,9.46l-1.48.22c-3.73-13.34-6.82-26.9-11.37-40s-10.52-25.4-15.85-38A20.25,20.25,0,0,0,80,173.4c2.13,6.72,3.91,13.6,6.64,20.08a264.12,264.12,0,0,1,18.55,68.44,32.68,32.68,0,0,1,0,4.2l-1.1.08c-6.75-31.65-16.45-62.41-28-93.36-.79,4.78-1.93,9-2.15,13.36-1,20.59-1.49,41.21-2.75,61.79-1.3,21.16-3.17,42.29-5,63.41s-4.29,42.22-5.88,63.37c-1.2,16-1.58,32.08-2.12,48.14-.54,15.81-1,31.62-1.16,47.44-.17,15.33,1.35,30.79-.14,46-2.92,29.79-7.34,59.43-11.28,89.12-1,7.13.21,9.71,7,12.53,12,5,24.57,5.58,37.12,3.78,7.73-1.11,15.23-3.9,22.79-6.06,2.14-.61,3-2.18,3.21-4.57,2-18.84,3.61-37.72,6.33-56.45,2.21-15.15,1.85-29.69-3.59-44.2a590.58,590.58,0,0,1-22.52-75C93.45,424.79,91.28,414,92.22,402.8Zm44.16,225.13c0,3.14.08,6,0,8.85-.11,3.23,1.14,5.76,4.11,6.92,3.76,1.46,7.6,3,11.55,3.65,14.59,2.21,28.95-.28,43.15-3.25a361.71,361.71,0,0,1,53.7-7.46c21.22-1.21,41.7,3,62.08,8.32,21.84,5.67,43.87,10,66.66,9.14,20.74-.83,38.73-8.06,54-22.1,1-1,2.07-2.67,1.94-3.9a97.87,97.87,0,0,0-2.16-10.25,17,17,0,0,0-2.21.67,23.48,23.48,0,0,0-2.82,1.56,100.17,100.17,0,0,1-64.46,17.07c-16.9-1.21-33.66-4.65-50.41-7.55-20.56-3.56-41.13-6.9-62-7.36-19.9-.43-39.36,2.85-58.81,6.65C172.63,632.41,154.5,636,136.38,627.93ZM340.59,65.25l.66,1a16.33,16.33,0,0,1-.89,1.52,42.88,42.88,0,0,1-2.79,3.75c-18.31,20.79-41.45,28.62-68.51,24.56C248.34,93,231.45,83.57,221.6,64c-.31-.62-1.2-1.39-1.77-1.36a38.25,38.25,0,0,0-7.09.94c-2,.51-2.63,2-1.41,3.88,2,3.13,3.77,6.43,6,9.37,10,13.18,21.38,24.77,38.28,28.75a127.08,127.08,0,0,0,17,2.9c24.29,2.32,46.23-3,64.15-20.62,6.11-6,11.45-12.53,13.67-21.28-4.86-2.07-9.74-3.07-14.82-2-5.39,1.13-10.66,2.88-16.09,3.73-25.49,4-50.9,2.69-76.22-1.77-5.93-1-11.84-2.3-18.7-3.63,1.48,2.25,2.31,3.81,3.41,5.16,13.49,16.48,30.74,24.81,52.21,25.16,22.57.36,41.18-7.34,55.77-24.65C337.17,67.19,339,66.35,340.59,65.25ZM479.07,148.9l-.6.1-14.75,28.86-1.15-.49c.91-2.9,1.63-5.87,2.75-8.69,2.74-6.9,5.71-13.7,8.49-20.58,4.48-11.12-2.88-28.49-14-33-1.29-.54-2.67-.87-3.93-1.27-7.44,11.38-18.72,70.41-15.37,82.55l17.23-29.06.91.48a78.19,78.19,0,0,1-2.65,7.73c-6.4,13.91-12.75,27.85-19.43,41.63-6.24,12.85-7.33,26.55-8,41.19l3.17-4c1.76,9.32-5.07,16.21-6.41,25.55,5.36-6.71,8.35-13.58,10.74-20.74,3.79-11.34,6.59-23.11,11.42-34,6.89-15.51,15.55-30.22,22.83-45.56,3.62-7.62,6-15.83,8.61-23.88C479.64,153.63,479.07,151.17,479.07,148.9ZM45.42,617.27c.09,1.76.1,2.45.16,3.13a105.88,105.88,0,0,1-1.28,30.05c-1.14,5.76-1.14,5.81,4.51,7.85,16.27,5.88,32.94,6.12,49.54,2.31,10.76-2.47,13.82-6.61,12.49-17a5.72,5.72,0,0,1,0-.72V619.86C89.34,626,67.28,630.63,45.42,617.27ZM520.87,617c-19.57,6.26-38.79,6.34-57.83-.42,1,10.24,1.94,20.23,2.85,30.23.64,6.91,2.08,9,9,10.53,13.93,3,27.87,2.33,41.67-1a3.83,3.83,0,0,0,2.43-2.11C522.57,642,522.37,629.66,520.87,617Z" transform="translate(-40.08 -58.42)"/><path class="cls-1" d="M147.31,320.89l-1.53.18,10,71,.93-.12C157.42,367.75,152.85,344.26,147.31,320.89Z" transform="translate(-40.08 -58.42)"/><path d="M210.38,560.84c-2.67-14.08-1.9-28.15.88-42.06,3.49-17.48,7.71-34.82,11.39-52.26,1.07-5.12,1.36-10.4,2-15.6l1.14.06c-.33,5.48-.19,11-1.07,16.44-3.12,19-6.88,37.91-9.82,56.95-1.53,9.9-1.85,20-2.74,30-.2,2.18-.5,4.36-.75,6.54Z" transform="translate(-40.08 -58.42)"/><path d="M147.31,320.89c5.54,23.37,10.11,46.86,9.42,71.06l-.93.12-10-71Z" transform="translate(-40.08 -58.42)"/></svg>